<?xml version="1.0" encoding="UTF-8"?>
<svg xmlns="http://www.w3.org/2000/svg" xmlns:xlink="http://www.w3.org/1999/xlink" width="256pt" height="256pt" viewBox="0 0 256 256" version="1.1">
<g id="surface1">
<path style=" stroke:none;fill-rule:nonzero;fill:rgb(0%,67.058824%,80.392157%);fill-opacity:1;" d="M 127.753906 0.242188 C 93.386719 0.242188 61.808594 13.339844 37.453125 37.695312 C 13.097656 62.050781 0 93.628906 0 128 C 0 162.371094 13.097656 193.945312 37.453125 218.300781 C 57.90625 238.753906 83.46875 251.269531 112.398438 254.992188 C 123.757812 256.453125 141.171875 255.714844 153.585938 253.238281 C 198.277344 244.335938 236.460938 209.71875 249.839844 165.976562 C 263.878906 120.082031 251.835938 71.472656 218.058594 37.695312 C 193.703125 13.339844 162.125 0.242188 127.753906 0.242188 Z M 126.59375 10.261719 C 145.082031 10.09375 163.558594 14.28125 180.398438 22.71875 C 203.476562 34.28125 221.472656 52.277344 233.035156 75.359375 C 249.65625 108.53125 249.65625 147.464844 233.035156 180.636719 C 227.238281 192.214844 221.460938 200.351562 212.257812 209.910156 C 192.785156 230.140625 167.003906 242.472656 138.328125 245.273438 C 116.941406 247.363281 94.871094 243.175781 75.117188 233.277344 C 63.539062 227.476562 55.398438 221.703125 45.839844 212.5 C 8.96875 177.003906 -0.527344 121.269531 22.476562 75.359375 C 36.300781 47.761719 60.054688 26.882812 89.140625 16.757812 C 101.285156 12.53125 113.941406 10.378906 126.59375 10.261719 Z M 126.59375 10.261719 "/>
<path style=" stroke:none;fill-rule:nonzero;fill:rgb(0%,67.058824%,80.392157%);fill-opacity:1;" d="M 190.417969 125.675781 C 184.664062 130.746094 176.324219 128.539062 176.324219 118.625 L 176.324219 89.113281 C 176.324219 85.058594 173.316406 82.164062 169.261719 82.164062 L 139.53125 82.164062 C 129.617188 82.164062 127.40625 73.8125 132.480469 68.0625 C 140.828125 58.601562 136.355469 43.972656 121.160156 43.339844 C 105.964844 43.972656 101.492188 58.578125 109.84375 68.039062 C 114.914062 73.789062 112.707031 82.164062 102.792969 82.164062 L 73.5 82.164062 C 69.449219 82.164062 66.136719 85.058594 66.136719 89.113281 L 66.136719 184.871094 C 66.136719 188.921875 69.449219 192.351562 73.5 192.351562 L 169.261719 192.351562 C 173.316406 192.351562 176.324219 188.921875 176.324219 184.871094 L 176.324219 155.359375 C 176.324219 145.445312 184.601562 143.238281 190.347656 148.308594 C 199.808594 156.660156 214.324219 152.1875 214.957031 136.992188 C 214.324219 121.796875 199.878906 117.324219 190.417969 125.675781 Z M 190.417969 125.675781 "/>
</g>
</svg>
